<?xml version="1.0" encoding="UTF-8" standalone="no"?>
<svg
   xmlns:svg="http://www.w3.org/2000/svg"
   xmlns="http://www.w3.org/2000/svg"
   xmlns:xlink="http://www.w3.org/1999/xlink"
   version="1.0"
   width="290"
   height="64"
   id="svg1901">
  <defs
     id="defs1903">
    <clipPath
       id="clipPath3318">
      <rect
         width="61.964287"
         height="61.964287"
         rx="23.75"
         ry="23.75"
         x="82.142853"
         y="127.36217"
         id="rect3320"
         style="opacity:0.69599998;fill:none;stroke:#000000;stroke-width:1.5" />
    </clipPath>
    <clipPath
       id="clipPath3322">
      <rect
         width="61.964287"
         height="61.964287"
         rx="23.75"
         ry="23.75"
         x="82.142853"
         y="127.36217"
         id="rect3324"
         style="opacity:0.69599998;fill:none;stroke:#000000;stroke-width:1.5" />
    </clipPath>
    <clipPath
       id="clipPath3326">
      <rect
         width="61.964287"
         height="61.964287"
         rx="23.75"
         ry="23.75"
         x="82.142853"
         y="127.36217"
         id="rect3328"
         style="opacity:0.69599998;fill:none;stroke:#000000;stroke-width:1.5" />
    </clipPath>
  </defs>
  <rect
     width="61.964287"
     height="61.964287"
     rx="23.75"
     ry="23.75"
     x="1.20371"
     y="1.0178566"
     id="rect3330"
     style="fill:#0e8f13" />
  <path
     d="M 101.37255,27.25899 L 107.8444,27.25899 L 107.8444,52.29899 L 101.37255,52.29899 L 101.37255,27.25899 M 101.37255,18.28488 L 107.8444,18.28488 L 107.8444,24.95283 L 101.37255,24.95283 L 101.37255,18.28488 M 119.507,18.21161 L 119.507,27.70542 L 126.4477,27.70542 L 126.4477,33.55129 L 119.507,33.55129 L 119.507,42.43385 C 119.57001,44.8072 121.25067,45.86982 122.54852,45.82811 L 126.59922,45.82811 L 126.59922,52.29899 L 121.31978,52.29899 C 115.95316,52.38826 112.56863,47.50786 112.56863,42.16599 L 112.56863,18.21161 M 72.407187,18.39048 L 85.314127,18.39048 C 87.869067,18.39052 89.770597,18.50601 91.018737,18.73694 C 95.234193,19.51459 97.696713,23.61853 97.868663,26.91341 C 98.040433,30.20485 96.703083,32.48851 94.849273,34.25838 C 96.221573,35.4247 98.166573,37.97944 98.168783,42.43484 C 98.171003,46.89024 95.426523,51.24504 90.546717,52.02026 C 89.460107,52.14344 87.553367,52.22044 83.397897,52.25123 L 72.407187,52.25123 L 72.407187,18.39048 M 79.253637,24.65124 L 79.253637,31.85625 L 82.558387,31.85625 C 84.947707,31.85627 86.432407,31.82085 87.012487,31.74998 C 88.062127,31.62248 88.883887,31.25408 89.477787,30.64479 C 90.085457,30.02137 90.389307,29.20664 90.389327,28.20062 C 90.389307,27.23714 90.126897,26.45783 89.602097,25.86271 C 89.091057,25.25345 88.324537,24.88506 87.302537,24.75751 C 86.694817,24.68669 84.947707,24.65127 82.061187,24.65124 L 79.253637,24.65124 M 79.253637,38.11701 L 79.253637,45.83189 L 83.962647,45.83189 C 86.059727,45.8319 87.390057,45.77285 87.953667,45.65477 C 88.818687,45.49732 89.519917,45.11684 90.057307,44.51327 C 90.607767,43.89662 90.883007,43.07659 90.883027,42.05317 C 90.883007,41.18722 90.673297,40.45248 90.253907,39.84891 C 89.834467,39.24539 89.225007,38.80585 88.425507,38.53031 C 87.639087,38.25479 85.922107,38.11702 83.274547,38.11701 L 79.253637,38.11701"
     id="text2218"
     style="font-size:43.87538147px;font-weight:bold;fill:#0e8f13;font-family:DejaVu Sans Condensed" />
  <path
     d="M 125.33737,18.153154 L 151.8756,18.153154 L 151.8756,24.796203 L 142.3364,24.796203 L 142.3364,52.235883 L 134.89799,52.235883 L 134.89799,24.796203 L 125.33737,24.796203 L 125.33737,18.153154"
     id="text3228"
     style="font-size:45.3046608px;font-weight:bold;fill:#666666;font-family:DejaVu Sans Condensed" />
  <path
     d="M 182.4671,27.06194 C 179.58578,27.06194 176.9265,28.68134 175.68585,30.68694 C 174.4452,32.69254 174.2171,34.77495 174.2171,36.56194 L 174.2171,52.09319 L 181.2171,52.09319 L 181.2171,36.56194 C 181.2171,35.58316 181.47272,34.66847 181.6546,34.37444 C 181.83648,34.08041 181.57429,34.06194 182.4671,34.06194 L 189.4046,34.06194 L 189.4046,27.06194 L 182.4671,27.06194 z"
     id="path3237"
     style="fill:#666666" />
  <use
     transform="translate(16.96875,4.2651365e-8)"
     id="use3240"
     x="0"
     y="0"
     width="300"
     height="73"
     xlink:href="#path3237" />
  <path
     d="M 270.93558,18.21161 L 270.93558,27.70542 L 277.87628,27.70542 L 277.87628,33.55129 L 270.93558,33.55129 L 270.93558,42.43385 C 270.99859,44.8072 272.67925,45.86982 273.9771,45.82811 L 278.0278,45.82811 L 278.0278,52.29899 L 272.74836,52.29899 C 267.38174,52.38826 263.99721,47.50786 263.99721,42.16599 L 263.99721,18.21161"
     id="path3250"
     style="font-size:43.87538147px;font-weight:bold;fill:#666666;font-family:DejaVu Sans Condensed" />
  <path
     d="M 155.74835,26.96819 C 150.20953,26.96819 145.6546,31.55437 145.6546,37.09319 L 145.6546,42.81194 C 145.6546,48.35076 150.20953,52.90569 155.74835,52.90569 L 161.2171,52.90569 C 166.75592,52.90569 171.31084,48.35076 171.31085,42.81194 L 171.31085,37.09319 C 171.31085,31.55437 166.75592,26.96819 161.2171,26.96819 L 155.74835,26.96819 z M 155.74835,33.96819 L 161.2171,33.96819 C 162.999,33.96819 164.31085,35.31129 164.31085,37.09319 L 164.31085,42.81194 C 164.31085,44.59384 162.999,45.90569 161.2171,45.90569 L 155.74835,45.90569 C 153.96645,45.90569 152.6546,44.59384 152.6546,42.81194 L 152.6546,37.09319 C 152.6546,35.31129 153.96645,33.96819 155.74835,33.96819 z"
     id="rect3257"
     style="fill:#666666" />
  <path
     d="M 214.9046,37.09319 L 226.56085,37.09319 C 226.56085,35.31129 225.24902,33.96819 223.4671,33.96819 L 217.99835,33.96819 C 216.21645,33.96819 214.9046,35.31129 214.9046,37.09319 z M 226.56085,42.81194 L 214.9046,42.81194 C 214.9046,44.59384 216.21645,45.90569 217.99835,45.90569 L 229.52802,45.90569 L 229.52802,52.90569 L 217.99835,52.90569 C 212.45953,52.90569 207.9046,48.35076 207.9046,42.81194 L 207.9046,37.09319 C 207.9046,31.55437 212.45953,26.96819 217.99835,26.96819 L 223.4671,26.96819 C 229.00592,26.96819 233.56085,31.55437 233.56085,37.09319 L 233.56085,42.81194 L 226.56085,42.81194 z"
     id="rect3259"
     style="fill:#666666" />
  <path
     d="M 248.93585,26.49944 C 246.97036,26.49944 244.99533,27.08764 243.0921,27.93694 L 243.0921,26.55496 L 236.0921,26.55496 L 236.0921,37.34319 L 236.0921,52.37444 L 243.0921,52.37444 L 243.0921,37.34319 C 243.0921,36.33321 243.57314,35.60675 244.74835,34.81194 C 245.92356,34.01713 247.72481,33.49944 248.93585,33.49944 C 250.1055,33.49944 251.60951,33.9807 252.5921,34.74944 C 253.57469,35.51818 254.1546,36.35335 254.1546,37.96819 L 254.1546,52.37444 L 261.1546,52.37444 L 261.1546,37.96819 C 261.1546,34.25019 259.30185,31.09371 256.9046,29.21819 C 254.50735,27.34267 251.67197,26.49944 248.93585,26.49944 z"
     id="path3268"
     style="fill:#666666" />
  <path
     d="M 277.08632,18.342209 L 282.38534,18.342209 L 282.38534,19.350991 L 280.4806,19.350991 L 280.4806,23.517853 L 278.99534,23.517853 L 278.99534,19.350991 L 277.08632,19.350991 L 277.08632,18.342209 M 283.14724,18.342209 L 285.03485,18.342209 L 286.34462,21.112027 L 287.66295,18.342209 L 289.54629,18.342209 L 289.54629,23.517853 L 288.14235,23.517853 L 288.14235,19.732315 L 286.81974,22.522939 L 285.87807,22.522939 L 284.55545,19.732315 L 284.55545,23.517853 L 283.14724,23.517853 L 283.14724,18.342209"
     id="text3280"
     style="font-size:7.88895273px;font-weight:bold;fill:#666666;font-family:DejaVu Sans Condensed" />
  <path
     d="M 113.70536,144.54968 C 93.472023,142.41044 76.151987,174.4551 106.60714,192.63004"
     transform="translate(-80.939143,-126.34431)"
     clip-path="url(#clipPath3326)"
     id="path3305"
     style="fill:none;stroke:#9fd2a1;stroke-width:5;stroke-linecap:butt" />
  <path
     d="M 123.03571,152.71932 C 108.25116,145.34211 95.019967,156.63352 96.302302,169.17853 C 97.622258,182.09158 109.5603,192.63229 136.45024,187.80226"
     transform="translate(-80.939143,-126.34431)"
     clip-path="url(#clipPath3322)"
     id="path3307"
     style="fill:none;stroke:#cfe9d0;stroke-width:5;stroke-linecap:butt" />
  <path
     d="M 124.76913,162.71932 C 119.86081,153.87951 108.39125,155.13346 104.28571,161.6479 C 101.06775,166.75397 100.51364,179.18764 118.21429,182.18361 C 126.36905,183.35916 138.80953,182.03673 148.39286,180.93361"
     transform="translate(-80.939143,-126.34431)"
     clip-path="url(#clipPath3318)"
     id="path3309"
     style="fill:none;stroke:#ffffff;stroke-width:5;stroke-linecap:butt" />
  <rect
     width="61.964287"
     height="61.964287"
     rx="23.75"
     ry="23.75"
     x="1.20371"
     y="1.0178566"
     id="rect3316"
     style="fill:none;stroke:#0e8f13;stroke-width:1.5" />
</svg>